{"title":"Ghost Hunters - S03E22 -  St. Augustine.[tNe.XViD].avi","uid":6009061,"size":365870150,"categoryP":"video","categoryS":"tv_shows","magnet":"?xt=urn:btih:eceefde47085b58262025e08a87d9fbb164c4a13&amp;dn=Ghost+Hunters+-+S03E22+-++St.+Augustine.%5BtNe.XViD%5D.avi&amp;tr=udp%3A%2F%2Ftracker.openbittorrent.com%3A80&amp;tr=udp%3A%2F%2Fopen.demonii.com%3A1337&amp;tr=udp%3A%2F%2Ftracker.coppersurfer.tk%3A6969&amp;tr=udp%3A%2F%2Fexodus.desync.com%3A6969","seeders":0,"leechers":1,"uploader":"trialNerror","files":1,"time":1291414714,"description":"Not sure why it's not keeping the &quot;Return to&quot; in the title.  Oh well.\n\nTAPS returns to the lighthouse in St. Augustine, Florida. This was the site of some of the best evidence that TAPS has ever recorded, and this time, armed with new technology and new team members, they hope to get even more.\n\n &lt;a href=&quot;\nhttp://www.tv.com/ghost-hunters/return-to-st.-augustine-lighthouse/episode/1169082/summary.html?tag=ep_guide;summary&quot; rel=&quot;nofollow&quot; target=&quot;_NEW&quot;&gt;\nhttp://www.tv.com/ghost-hunters/return-to-st.-augustine-lighthouse/episode/1169082/summary.html?tag=ep_guide;summary&lt;/a&gt;\n\n\n\nFormat                           : AVI\nFormat/Info                      : Audio Video Interleave\nFile size                        : 349 MiB\nDuration                         : 43mn 40s\nOverall bit rate                 : 1 117 Kbps\nWriting application              : Lavf51.13.4\nWriting library                  : VirtualDub build 32839/release\n\nVideo\nID                               : 0\nFormat                           : MPEG-4 Visual\nFormat profile                   : Advanced Simple@L5\nFormat settings, BVOP            : Yes\nFormat settings, QPel            : No\nFormat settings, GMC             : No warppoints\nFormat settings, Matrix          : Default (H.263)\nCodec ID                         : XVID\nCodec ID/Hint                    : XviD\nDuration                         : 43mn 40s\nBit rate                         : 984 Kbps\nWidth                            : 640 pixels\nHeight                           : 480 pixels\nDisplay aspect ratio             : 4:3\nFrame rate                       : 29.970 fps\nColor space                      : YUV\nChroma subsampling               : 4:2:0\nBit depth                        : 8 bits\nScan type                        : Progressive\nBits/(Pixel*Frame)               : 0.107\nStream size                      : 307 MiB (88%)\nWriting library                  : XviD 1.2.1 (UTC 2008-12-04)\n\nAudio\nID                               : 1\nFormat                           : MPEG Audio\nFormat version                   : Version 1\nFormat profile                   : Layer 3\nMode                             : Joint stereo\nCodec ID                         : 55\nCodec ID/Hint                    : MP3\nDuration                         : 43mn 39s\nBit rate mode                    : Variable\nBit rate                         : 119 Kbps\nMinimum bit rate                 : 56.0 Kbps\nChannel(s)                       : 2 channels\nSampling rate                    : 48.0 KHz\nStream size                      : 37.3 MiB (11%)\nAlignment                        : Aligned on interleaves\nInterleave, duration             : 24 ms (0.72 video frame)\nInterleave, preload duration     : 294 ms\nWriting library                  : LAME3.98r\nEncoding settings                : -m j -V 5 -q 0 -lowpass 16.5 --vbr-new -b 56\n\n","torrent":{"xt":"urn:btih:eceefde47085b58262025e08a87d9fbb164c4a13","amp;dn":"Ghost+Hunters+-+S03E22+-++St.+Augustine.%5BtNe.XViD%5D.avi","amp;tr":["udp%3A%2F%2Ftracker.openbittorrent.com%3A80","udp%3A%2F%2Fopen.demonii.com%3A1337","udp%3A%2F%2Ftracker.coppersurfer.tk%3A6969","udp%3A%2F%2Fexodus.desync.com%3A6969"],"infoHash":"eceefde47085b58262025e08a87d9fbb164c4a13","infoHashBuffer":{"type":"Buffer","data":[236,238,253,228,112,133,181,130,98,2,94,8,168,125,159,187,22,76,74,19]},"announce":[],"urlList":[]}}